HIERARCHY
ROOT Hips
{
	OFFSET 1.640526 106.027718 -1.111724
	CHANNELS 6 Xposition Yposition Zposition Xrotation Yrotation Zrotation
	JOINT Chest
	{
		OFFSET 0.304657 13.577858 1.305048
		CHANNELS 3 Xrotation Yrotation Zrotation
		JOINT Chest2
		{
			OFFSET -0.939731 21.295029 2.169158
			CHANNELS 3 Xrotation Yrotation Zrotation
			JOINT Chest3
			{
				OFFSET -0.725200 14.906647 -0.293215
				CHANNELS 3 Xrotation Yrotation Zrotation
				JOINT Neck
				{
					OFFSET 0.206343 17.219269 1.438838
					CHANNELS 3 Xrotation Yrotation Zrotation
					JOINT Head
					{
						OFFSET -0.359955 10.384766 1.361906
						CHANNELS 3 Xrotation Yrotation Zrotation
						End Site
						{
							OFFSET -0.357369 10.394104 1.289458
						}
					}
				}
				JOINT LeftCollar
				{
					OFFSET 4.514687 12.938324 3.744577
					CHANNELS 3 Xrotation Yrotation Zrotation
					JOINT LeftUpArm
					{
						OFFSET 14.063680 -5.708710 -8.838728
						CHANNELS 3 Xrotation Yrotation Zrotation
						JOINT LeftLowArm
						{
							OFFSET 3.855364 -33.538757 0.128876
							CHANNELS 3 Xrotation Yrotation Zrotation
							JOINT LeftHand
							{
								OFFSET -1.289577 -27.974396 10.803611
								CHANNELS 3 Xrotation Yrotation Zrotation
								End Site
								{
									OFFSET -0.281841 -6.113968 2.361187
								}
							}
						}
					}
				}
				JOINT RightCollar
				{
					OFFSET -3.889228 13.000946 4.202150
					CHANNELS 3 Xrotation Yrotation Zrotation
					JOINT RightUpArm
					{
						OFFSET -14.413582 -6.206497 -7.888240
						CHANNELS 3 Xrotation Yrotation Zrotation
						JOINT RightLowArm
						{
							OFFSET -4.617668 -33.427383 -1.011001
							CHANNELS 3 Xrotation Yrotation Zrotation
							JOINT RightHand
							{
								OFFSET 1.475950 -28.021767 10.656335
								CHANNELS 3 Xrotation Yrotation Zrotation
								End Site
								{
									OFFSET 0.322578 -6.124435 2.329052
								}
							}
						}
					}
				}
			}
		}
	}
	JOINT LeftUpLeg
	{
		OFFSET 10.017502 -0.235985 0.114510
		CHANNELS 3 Xrotation Yrotation Zrotation
		JOINT LeftLowLeg
		{
			OFFSET 2.939908 -47.207630 -2.604919
			CHANNELS 3 Xrotation Yrotation Zrotation
			JOINT LeftFoot
			{
				OFFSET -1.536975 -42.858440 -12.702728
				CHANNELS 3 Xrotation Yrotation Zrotation
				JOINT LeftToe
				{
					OFFSET -0.668504 -16.516800 16.920643
					CHANNELS 3 Xrotation Yrotation Zrotation
					End Site
					{
						OFFSET 1.122499 -2.118352 23.533199
					}
				}
			}
		}
	}
	JOINT RightUpLeg
	{
		OFFSET -10.017509 0.235786 -0.114529
		CHANNELS 3 Xrotation Yrotation Zrotation
		JOINT RightLowLeg
		{
			OFFSET -2.459406 -47.307137 0.008873
			CHANNELS 3 Xrotation Yrotation Zrotation
			JOINT RightFoot
			{
				OFFSET -0.653322 -42.466965 -14.025385
				CHANNELS 3 Xrotation Yrotation Zrotation
				JOINT RightToe
				{
					OFFSET -0.880062 -18.831110 14.288876
					CHANNELS 3 Xrotation Yrotation Zrotation
					End Site
					{
						OFFSET -2.907640 -5.512943 22.819054
					}
				}
			}
		}
	}
}
MOTION
Frames: 10
Frame Time: 0.033333
1.640526 106.027718 -1.111724 0.000000 0.000000 -0.000000 -0.000001 0.000000 -0.000000 -0.000001 0.000000 -0.000000 -0.000002 -0.000000 -0.000000 -0.000000 -0.000001 -0.000000 -0.000000 -0.000000 0.000000 0.000002 -0.000001 0.000001 -0.000001 0.000003 0.000001 -0.000001 0.000007 -0.000000 -0.000002 0.000001 -0.000000 -0.000000 0.000001 0.000002 -0.000001 0.000001 -0.000000 -0.000001 0.000000 0.000001 0.000001 0.000000 0.000001 -0.000000 -0.000000 0.000000 0.000000 0.000000 0.000000 -0.000001 -0.000000 -0.000000 -0.000000 -0.000000 -0.000001 0.000000 0.000000 -0.000000 -0.000001 -0.000000 -0.000000 0.000001 0.000000 -0.000000 -0.000001 0.000001 -0.000001 
1.656973 106.033585 -1.113798 0.295411 -0.005393 0.010952 0.596542 -0.024102 0.048619 -2.527407 0.037757 -0.062446 1.738234 -0.100021 0.005733 -0.439901 0.042136 -0.065043 0.000000 0.000000 0.000000 0.019868 -0.223168 -0.107340 -0.282324 -0.138867 -0.052044 -0.070196 0.182878 0.599255 -0.000000 0.000002 0.000001 0.107968 0.997982 0.009496 -0.617626 0.365510 0.061008 0.253481 -0.082002 -0.183274 -0.000000 -0.000002 0.000000 -0.516906 -0.031039 -0.117011 0.472549 -0.149157 0.004258 -1.099506 -0.173398 0.090023 -0.000001 -0.000000 -0.000003 -0.705390 0.074345 -0.131044 0.500950 0.081333 0.088860 -0.815944 0.131514 0.212544 -0.000001 0.000000 -0.000002 
1.676548 106.039589 -1.117925 -0.000724 -0.032402 -0.002837 0.906794 -0.041299 0.038369 -2.474191 0.130825 -0.136238 1.504708 0.273046 0.135748 -0.568238 -0.104216 0.171168 0.000000 0.000000 -0.000000 0.065653 -0.451351 -0.212344 -0.287536 -0.176408 -0.010742 0.157627 0.405461 0.847638 0.000000 0.000002 -0.000000 0.073065 0.479481 0.277108 -0.730851 0.520127 -0.052723 0.479853 -0.281461 -0.197644 -0.000000 0.000006 0.000000 0.061309 -0.082666 -0.150660 0.414087 -0.162422 -0.016344 -1.568537 -0.423992 0.076428 0.000000 -0.000000 -0.000001 -0.880900 0.153294 -0.207752 1.343163 0.184909 0.183844 -0.999842 -0.128613 0.314534 0.000000 0.000000 -0.000000 
1.708676 106.049797 -1.122429 -0.388111 -0.229550 -0.217913 1.411338 -0.067381 0.131448 -3.258747 0.057154 -0.049509 1.925405 0.644295 0.110129 -0.160896 -0.282351 0.376385 0.000000 -0.000000 0.000000 -0.025914 -0.421317 -0.164805 -0.300739 -0.186830 -0.155279 0.526657 0.585343 1.492017 -0.000000 -0.000006 0.000002 -0.023500 0.337182 0.297546 -1.030651 0.703891 0.042885 0.791718 -0.313979 -0.233068 0.000002 0.000001 0.000002 0.152879 -0.077670 -0.048049 0.823235 -0.201513 -0.025300 -1.586249 -0.343173 0.133875 0.000000 0.000000 -0.000002 -0.719639 0.134577 -0.088012 1.635282 0.214413 0.231675 -1.670418 0.090956 0.508865 -0.000000 -0.000000 -0.000001 
1.750772 106.056999 -1.120658 -0.424154 -0.357105 -0.361581 1.556421 -0.063946 0.149997 -3.868486 0.171001 -0.222932 2.271393 0.698236 0.354351 0.098801 -0.299185 0.429102 -0.000000 0.000000 0.000000 -0.205818 0.194196 -0.021424 0.502465 0.521084 -0.233502 -0.072076 0.879439 2.090385 -0.000004 -0.000000 0.000000 -0.060648 0.556746 0.296413 -1.564555 0.932868 0.103844 1.041161 -0.357763 -0.105057 0.000002 0.000000 0.000001 0.376547 -0.071290 -0.036841 0.875033 -0.367447 0.075713 -1.735761 -0.517693 0.064222 -0.000000 0.000000 -0.000001 -0.172664 0.090589 -0.124585 1.245787 0.285777 0.403608 -1.671623 0.248123 0.571749 -0.000001 0.000001 -0.000002 
1.795189 106.073166 -1.126381 -0.428191 -0.313715 -0.489380 1.523279 -0.060797 0.120553 -4.307984 0.122768 -0.155083 2.736639 0.611786 0.379883 0.283650 -0.347800 0.475046 0.000000 0.000000 0.000000 -0.318614 0.389133 0.041748 0.788069 0.818768 -0.267812 0.283388 1.174093 2.798464 -0.000006 0.000000 0.000003 -0.066975 1.201827 0.384550 -2.000192 1.110215 0.107588 0.948489 -0.471331 -0.183775 -0.000000 -0.000000 -0.000001 0.412881 -0.094954 0.073627 1.007820 -0.372507 0.022669 -1.998418 -0.413429 0.177552 -0.000000 0.000000 -0.000001 -0.150724 0.088859 -0.103274 1.188919 0.255742 0.576995 -1.663651 0.322627 0.615516 -0.000001 0.000000 -0.000002 
1.848097 106.077415 -1.122493 -0.685596 -0.125654 -0.748319 1.954888 -0.105738 0.290797 -4.627948 0.139874 -0.202986 2.935312 0.531220 0.427442 0.305562 -0.636562 0.681316 -0.000000 -0.000000 0.000000 -0.485005 1.094930 0.172213 1.231681 1.166951 -0.214012 0.436462 1.424252 3.694093 -0.000003 -0.000000 -0.000000 -0.073950 1.658079 0.286302 -2.468591 1.309973 0.176691 0.486912 -0.425479 0.064969 -0.000000 -0.000001 0.000002 0.571364 -0.091602 0.251070 1.274176 -0.285752 0.057408 -2.087381 -0.218745 0.370419 -0.000000 -0.000000 -0.000001 0.309162 0.035149 0.040295 1.095576 0.125096 0.654976 -1.528344 0.006106 0.554077 -0.000000 0.000001 -0.000000 
1.900398 106.078842 -1.103673 -1.041742 0.106686 -1.014878 1.942884 -0.154056 0.330050 -4.206069 0.088285 -0.115345 2.550636 0.707876 0.394354 0.750488 -0.963456 0.916623 -0.000000 -0.000000 0.000000 -0.244777 1.105372 0.087538 1.265165 0.692933 0.236826 0.880644 1.407028 5.874004 0.000001 -0.000004 0.000001 0.219978 1.875418 0.349912 -3.409478 2.466856 0.065813 -0.418134 0.174065 0.143326 0.000002 -0.000002 0.000000 1.144849 -0.037844 0.529981 1.543573 -0.243714 -0.038832 -2.183160 -0.063071 0.494305 -0.000000 -0.000000 -0.000000 0.295435 0.042631 0.235407 1.731568 0.091924 0.829745 -1.017143 -0.440636 0.339839 -0.000003 -0.000001 -0.000002 
1.959171 106.084084 -1.089171 -1.138284 -0.147891 -1.182719 2.067316 -0.187329 0.370420 -3.860282 0.133808 -0.170623 2.236288 0.972064 0.511442 0.778286 -1.210515 1.074753 0.000001 -0.000000 -0.000000 -0.029957 0.860619 0.141937 1.651046 1.014379 0.453237 0.362657 1.927215 7.516067 -0.000002 -0.000006 0.000002 0.205714 1.603870 0.031212 -4.130283 3.027167 0.002916 -1.289111 0.043621 1.219642 0.000002 0.000001 0.000002 1.598831 -0.033068 0.695482 1.733483 -0.367631 -0.334996 -2.297774 0.207248 0.736481 -0.000000 -0.000000 -0.000002 -0.780816 0.127692 0.236802 3.736510 0.228364 0.991912 -0.799503 -0.443841 0.134630 -0.000003 0.000000 -0.000001 
2.016479 106.090843 -1.087324 -0.998799 0.337513 -1.469700 2.279058 -0.191081 0.412544 -3.979164 0.067615 -0.145893 2.357934 0.853752 0.570921 0.915638 -1.662334 1.167466 -0.000000 -0.000001 -0.000000 0.019498 0.751692 0.561711 0.939413 0.821289 1.084643 -0.407850 2.776036 8.939521 -0.000001 -0.000002 0.000001 -0.019846 0.789898 -0.376178 -4.815337 3.240103 -0.690495 -3.111673 0.023700 3.878075 0.000002 0.000004 0.000000 1.545191 -0.024118 1.247519 2.436152 -0.445402 -0.563537 -1.800940 -0.057496 0.466386 -0.000001 -0.000000 -0.000001 -2.192432 0.125003 0.508484 5.607793 0.338091 1.152674 -0.174284 -0.737400 -0.096223 -0.000002 0.000001 -0.000001 
